<?xml version="1.0" encoding="iso-8859-1"?>
<!-- Generator: Adobe Illustrator 19.2.1, SVG Export Plug-In . SVG Version: 6.00 Build 0)  -->
<svg version="1.1" xmlns="http://www.w3.org/2000/svg" xmlns:xlink="http://www.w3.org/1999/xlink" x="0px" y="0px"
	 viewBox="0 0 24 24" style="enable-background:new 0 0 24 24;" xml:space="preserve">
<g id="Mail">
</g>
<g id="Open_Mail">
</g>
<g id="Mail_Attachmet">
</g>
<g id="Mails">
</g>
<g id="Trash">
</g>
<g id="Trash_Full">
</g>
<g id="Preferences_1">
</g>
<g id="Preferences_2">
</g>
<g id="Mouse">
</g>
<g id="Computer">
</g>
<g id="Notebook">
</g>
<g id="Mobile_Phone">
</g>
<g id="Print">
</g>
<g id="Calculator">
</g>
<g id="Tag">
</g>
<g id="Paperclip">
</g>
<g id="Heart">
</g>
<g id="Lock">
</g>
<g id="Lock_Open">
</g>
<g id="Key_1">
</g>
<g id="Star">
</g>
<g id="Add">
</g>
<g id="Remove">
</g>
<g id="Error">
</g>
<g id="Check_1">
</g>
<g id="Time">
</g>
<g id="Question_Mark">
</g>
<g id="Error_Mark">
</g>
<g id="Sand-Glass">
</g>
<g id="Battery_Full">
</g>
<g id="Battery_Charge">
</g>
<g id="Battery_Half">
</g>
<g id="Battery_Low">
</g>
<g id="No_Battery">
</g>
<g id="Key_2">
</g>
<g id="Link">
</g>
<g id="Brake_Link">
</g>
<g id="Pencil">
</g>
<g id="At">
</g>
<g id="Reply">
</g>
<g id="Accessible">
</g>
<g id="Up_Arrow">
</g>
<g id="Brush">
</g>
<g id="Design_Mug">
</g>
<g id="Design">
</g>
<g id="Server">
</g>
<g id="Database">
</g>
<g id="Save">
</g>
<g id="Female">
</g>
<g id="Male">
</g>
<g id="Book">
</g>
<g id="Power">
</g>
<g id="Reload">
</g>
<g id="Map">
</g>
<g id="Loction_1">
</g>
<g id="Location_2">
</g>
<g id="Globe">
</g>
<g id="Suitcase">
</g>
<g id="Callendar">
</g>
<g id="Cloud_Off">
</g>
<g id="File_1">
</g>
<g id="File_2">
</g>
<g id="Folder">
</g>
<g id="Open_Folder">
</g>
<g id="Cloud">
</g>
<g id="Upload_Cloud">
</g>
<g id="Download_Cloud">
</g>
<g id="Eye">
</g>
<g id="Invisible">
</g>
<g id="Assignment">
	<g>
		<path d="M7.5,5h9C16.776,5,17,4.776,17,4.5v-1C17,2.673,16.327,2,15.5,2H14c0-1.103-0.897-2-2-2c-1.103,0-2,0.897-2,2H8.5
			C7.673,2,7,2.673,7,3.5v1C7,4.776,7.224,5,7.5,5z"/>
		<path d="M18.5,3h-0.551C17.982,3.162,18,3.329,18,3.5v1C18,5.327,17.327,6,16.5,6h-9C6.673,6,6,5.327,6,4.5v-1
			C6,3.329,6.018,3.162,6.051,3H5.5C4.673,3,4,3.673,4,4.5v18C4,23.327,4.673,24,5.5,24h13c0.827,0,1.5-0.673,1.5-1.5v-18
			C20,3.673,19.327,3,18.5,3z M7.5,19C7.224,19,7,18.776,7,18.5C7,18.224,7.224,18,7.5,18S8,18.224,8,18.5C8,18.776,7.776,19,7.5,19
			z M7.5,16C7.224,16,7,15.776,7,15.5C7,15.224,7.224,15,7.5,15S8,15.224,8,15.5C8,15.776,7.776,16,7.5,16z M7.5,13
			C7.224,13,7,12.776,7,12.5C7,12.224,7.224,12,7.5,12S8,12.224,8,12.5C8,12.776,7.776,13,7.5,13z M7.5,10C7.224,10,7,9.776,7,9.5
			C7,9.224,7.224,9,7.5,9S8,9.224,8,9.5C8,9.776,7.776,10,7.5,10z M16.5,19h-7C9.224,19,9,18.776,9,18.5S9.224,18,9.5,18h7
			c0.276,0,0.5,0.224,0.5,0.5S16.776,19,16.5,19z M16.5,16h-7C9.224,16,9,15.776,9,15.5S9.224,15,9.5,15h7
			c0.276,0,0.5,0.224,0.5,0.5S16.776,16,16.5,16z M16.5,13h-7C9.224,13,9,12.776,9,12.5S9.224,12,9.5,12h7
			c0.276,0,0.5,0.224,0.5,0.5S16.776,13,16.5,13z M16.5,10h-7C9.224,10,9,9.776,9,9.5S9.224,9,9.5,9h7C16.776,9,17,9.224,17,9.5
			S16.776,10,16.5,10z"/>
	</g>
</g>
<g id="Note_Book">
</g>
<g id="Webpage">
</g>
<g id="Mailbox">
</g>
<g id="Drive">
</g>
<g id="Disc">
</g>
<g id="Wifi_1">
</g>
<g id="Wifi_2">
</g>
<g id="Archive">
</g>
<g id="Archive_File">
</g>
<g id="News">
</g>
<g id="Home">
</g>
<g id="Collaboration">
</g>
<g id="Announcement">
</g>
<g id="Watch">
</g>
<g id="Clock">
</g>
<g id="Volume">
</g>
<g id="Mute">
</g>
<g id="Hand">
</g>
<g id="Layers">
</g>
<g id="Bell">
</g>
<g id="Speach_Bubble">
</g>
<g id="Speach_Bubbles">
</g>
<g id="Zoom_In">
</g>
<g id="Zoom_Out">
</g>
<g id="Search">
</g>
<g id="Back_Arrow">
</g>
<g id="Close">
</g>
<g id="Check_2">
</g>
<g id="Left_Arrow_2">
</g>
<g id="Right_Arrow_2">
</g>
</svg>
