<?xml version="1.0" encoding="iso-8859-1"?>
<!-- Generator: Adobe Illustrator 19.2.1, SVG Export Plug-In . SVG Version: 6.00 Build 0)  -->
<svg version="1.1" xmlns="http://www.w3.org/2000/svg" xmlns:xlink="http://www.w3.org/1999/xlink" x="0px" y="0px"
	 viewBox="0 0 24 24" style="enable-background:new 0 0 24 24;" xml:space="preserve">
<g id="Credit_Card">
</g>
<g id="Banknote">
</g>
<g id="Wallet">
</g>
<g id="Compass">
</g>
<g id="Camera_1">
</g>
<g id="Photo">
</g>
<g id="Picture">
</g>
<g id="Camera_2">
</g>
<g id="No_Camera">
</g>
<g id="Video">
</g>
<g id="Audio">
</g>
<g id="Microphone_1">
</g>
<g id="Microphone_2">
</g>
<g id="No_Microphone">
</g>
<g id="Shopping_Cart">
</g>
<g id="Add_Shopping_Cart">
</g>
<g id="Remove_Shopping_Cart">
</g>
<g id="Shopping_Basket">
</g>
<g id="Jing-Jang">
</g>
<g id="Leaf">
</g>
<g id="Glass">
</g>
<g id="Cup">
</g>
<g id="Mug">
</g>
<g id="Refresh">
</g>
<g id="Login">
</g>
<g id="Logout">
</g>
<g id="Flowchart">
</g>
<g id="Pin_1">
</g>
<g id="Pin_2">
</g>
<g id="User_1">
</g>
<g id="User_2">
</g>
<g id="Users">
</g>
<g id="Adjustments">
</g>
<g id="Type">
</g>
<g id="Format_Size">
</g>
<g id="Menu_1">
</g>
<g id="Other">
</g>
<g id="Flash">
</g>
<g id="No_Flash">
</g>
<g id="Switch_Button_1">
</g>
<g id="Switch_Button_2">
</g>
<g id="Cut">
</g>
<g id="Crop">
</g>
<g id="Sun">
</g>
<g id="USB">
</g>
<g id="Pie_Chart_1">
</g>
<g id="Pie_Chart_2">
</g>
<g id="Line_Chart">
</g>
<g id="Bar_Chart">
</g>
<g id="Target">
</g>
<g id="Flashlight">
</g>
<g id="USB_Device">
</g>
<g id="Eject">
</g>
<g id="Lightbulb">
</g>
<g id="Information">
</g>
<g id="Deactivate_Protection">
</g>
<g id="Active_Protection">
</g>
<g id="Bug">
</g>
<g id="Protection">
</g>
<g id="Phone">
	<g>
		<path d="M2.801,10.066c0.547,0.547,1.539,0.53,2.044,0.023c0.744-0.688,1.563-1.258,2.428-1.69C7.809,8.139,8,7.506,8,7V6.374
			C9.276,6.031,10.725,6,12,6c1.351,0,2.764,0.031,4,0.371V7c0,0.664,0.268,1.19,0.712,1.406c0.904,0.452,1.726,1.02,2.439,1.689
			c0.272,0.257,0.642,0.405,1.014,0.405c0.393,0,0.76-0.15,1.034-0.424l2.376-2.376C23.849,7.426,24,7.059,24,6.665
			c0-0.393-0.15-0.76-0.435-1.043C20.923,3.117,17.355,2,12,2C6.644,2,3.077,3.117,0.424,5.631C0.15,5.905,0,6.272,0,6.665
			c0,0.396,0.158,0.773,0.424,1.024L2.801,10.066z"/>
		<path d="M12,7c-2.804,0-5,1.538-5,3.5S9.196,14,12,14s5-1.538,5-3.5S14.804,7,12,7z"/>
		<path d="M20.181,12.473c-0.351-0.351-0.818-0.518-1.306-0.475c-0.519,0.047-0.992,0.33-1.298,0.775C16.662,14.105,14.421,15,12,15
			c-2.42,0-4.662-0.895-5.577-2.227c-0.306-0.446-0.779-0.729-1.298-0.776c-0.485-0.042-0.952,0.123-1.303,0.474l-2.792,2.792
			C0.308,15.985,0,16.604,0,17.328V19.5C0,20.879,1.122,22,2.5,22h19c1.379,0,2.5-1.121,2.5-2.5v-2.172
			c0-0.668-0.26-1.295-0.732-1.768L20.181,12.473z"/>
	</g>
</g>
<g id="List">
</g>
<g id="Plugin_1">
</g>
<g id="Bookmarrk">
</g>
<g id="Handshake">
</g>
<g id="Minimize">
</g>
<g id="Maximize">
</g>
<g id="Diamond">
</g>
<g id="Stop">
</g>
<g id="Shuffle">
</g>
<g id="Undo">
</g>
<g id="Upgrade">
</g>
<g id="Coding">
</g>
<g id="Syncronizaion">
</g>
<g id="Radio">
</g>
<g id="Presentation">
</g>
<g id="Door">
</g>
<g id="Thumbs_Up">
</g>
<g id="Thumbs_Down">
</g>
<g id="Keyboard">
</g>
<g id="_x33_D_Cube">
</g>
<g id="Signal">
</g>
<g id="Dice">
</g>
<g id="Upload">
</g>
<g id="Download">
</g>
<g id="Plugin_2">
</g>
<g id="Shopping_Bag">
</g>
<g id="Lifebelt">
</g>
<g id="Glasses">
</g>
<g id="Parabolic_Antenna">
</g>
<g id="Loudspeaker">
</g>
<g id="Play">
</g>
<g id="Pause">
</g>
<g id="Signpost">
</g>
<g id="Bluetooth">
</g>
<g id="Present">
</g>
<g id="Ruler">
</g>
<g id="Connection">
</g>
<g id="Money">
</g>
<g id="Paper_Plane">
</g>
<g id="Wallet_2">
</g>
</svg>
